<mxfile host="65bd71144e">
    <diagram id="ZQPx3XUf6edGNfIJdI9X" name="Page-1">
        <mxGraphModel dx="746" dy="667" grid="1" gridSize="10" guides="1" tooltips="1" connect="1" arrows="1" fold="1" page="1" pageScale="1" pageWidth="850" pageHeight="1100" math="0" shadow="0">
            <root>
                <mxCell id="0"/>
                <mxCell id="1" parent="0"/>
                <mxCell id="2" value="Codecave with Empty Data:&lt;br&gt;&lt;br&gt;0x300: useless data&lt;br&gt;0x304: useless data&lt;br&gt;0x308: useless data&lt;br&gt;0x30C: useless data 0x310: useless data&lt;br&gt;&amp;nbsp; &amp;nbsp; 0x314: useless data&amp;nbsp;&amp;nbsp; &amp;nbsp;" style="rounded=1;whiteSpace=wrap;html=1;fillColor=#6d8764;fontColor=#ffffff;strokeColor=#3A5431;" parent="1" vertex="1">
                    <mxGeometry x="70" y="180" width="140" height="180" as="geometry"/>
                </mxCell>
                <mxCell id="3" value="Some Other In Game Function:&lt;br&gt;&lt;br&gt;0x100: instruction&amp;nbsp;&lt;br&gt;0x104: instruction&lt;br&gt;0x108: instruction&lt;br&gt;0x10C: instruction" style="rounded=1;whiteSpace=wrap;html=1;fillColor=#76608a;strokeColor=#432D57;fontColor=#ffffff;" parent="1" vertex="1">
                    <mxGeometry x="270" y="280" width="140" height="180" as="geometry"/>
                </mxCell>
                <mxCell id="6" style="edgeStyle=none;html=1;exitX=0.5;exitY=0;exitDx=0;exitDy=0;" parent="1" source="4" edge="1">
                    <mxGeometry relative="1" as="geometry">
                        <mxPoint x="330" y="90" as="targetPoint"/>
                    </mxGeometry>
                </mxCell>
                <mxCell id="4" value="Hook Function:&amp;nbsp;&lt;br&gt;&lt;br&gt;0x50: instruction&amp;nbsp;&lt;br&gt;0x54: instruction&lt;br&gt;0x58: instruction&lt;br&gt;0x5C: instruction&lt;br&gt;&amp;nbsp; &amp;nbsp; &amp;nbsp; 0x60: jump to 0x100" style="rounded=1;whiteSpace=wrap;html=1;fillColor=#76608a;fontColor=#ffffff;strokeColor=#432D57;" parent="1" vertex="1">
                    <mxGeometry x="270" y="90" width="140" height="120" as="geometry"/>
                </mxCell>
                <mxCell id="5" value="" style="curved=1;endArrow=classic;html=1;entryX=0.5;entryY=0;entryDx=0;entryDy=0;" parent="1" source="4" target="3" edge="1">
                    <mxGeometry width="50" height="50" relative="1" as="geometry">
                        <mxPoint x="340" y="260" as="sourcePoint"/>
                        <mxPoint x="240" y="250" as="targetPoint"/>
                    </mxGeometry>
                </mxCell>
            </root>
        </mxGraphModel>
    </diagram>
</mxfile>